HIERARCHY
ROOT joint_Root
{
  OFFSET 0 0 0
  CHANNELS 6 Xposition Yposition Zposition Zrotation Xrotation Yrotation
  JOINT Hips
  {
    OFFSET 0.0408292 93.9915 0.0639531
    CHANNELS 6 Xposition Yposition Zposition Zrotation Xrotation Yrotation
    JOINT Spine
    {
      OFFSET 15.7357 0 0
      CHANNELS 6 Xposition Yposition Zposition Zrotation Xrotation Yrotation
      JOINT Chest
      {
        OFFSET 8.98455 -0.406207 0
        CHANNELS 6 Xposition Yposition Zposition Zrotation Xrotation Yrotation
        JOINT Neck
        {
          OFFSET 16.3773 0 0
          CHANNELS 6 Xposition Yposition Zposition Zrotation Xrotation Yrotation
          JOINT Head
          {
            OFFSET 6.45672 0 0
            CHANNELS 6 Xposition Yposition Zposition Zrotation Xrotation Yrotation
            End Site
            {
              OFFSET 10 0 0
            }
          }
        }
        JOINT Shoulder_L
        {
          OFFSET 12.9942 -0.242716 4.98039
          CHANNELS 6 Xposition Yposition Zposition Zrotation Xrotation Yrotation
          JOINT UpperArm_L
          {
            OFFSET 5.34809 0 0
            CHANNELS 6 Xposition Yposition Zposition Zrotation Xrotation Yrotation
            JOINT LowerArm_L
            {
              OFFSET 24.3286 1.87007e-05 0
              CHANNELS 6 Xposition Yposition Zposition Zrotation Xrotation Yrotation
              JOINT Hand_L
              {
                OFFSET 22.2916 0 0
                CHANNELS 6 Xposition Yposition Zposition Zrotation Xrotation Yrotation
                End Site
                {
                  OFFSET 5 0 0
                }
              }
            }
          }
        }
        JOINT Shoulder_R
        {
          OFFSET 12.9945 -0.242716 -4.98039
          CHANNELS 6 Xposition Yposition Zposition Zrotation Xrotation Yrotation
          JOINT UpperArm_R
          {
            OFFSET -5.34813 0 0
            CHANNELS 6 Xposition Yposition Zposition Zrotation Xrotation Yrotation
            JOINT LowerArm_R
            {
              OFFSET -24.3289 0.000322201 0
              CHANNELS 6 Xposition Yposition Zposition Zrotation Xrotation Yrotation
              JOINT Hand_R
              {
                OFFSET -22.2915 -0.000108084 0
                CHANNELS 6 Xposition Yposition Zposition Zrotation Xrotation Yrotation
                End Site
                {
                  OFFSET -5 0 0
                }
              }
            }
          }
        }
      }
    }
    JOINT UpperLeg_L
    {
      OFFSET -2.19248 -6.46944 0
      CHANNELS 6 Xposition Yposition Zposition Zrotation Xrotation Yrotation
      JOINT LowerLeg_L
      {
        OFFSET 39.0811 0 -1.23785e-05
        CHANNELS 6 Xposition Yposition Zposition Zrotation Xrotation Yrotation
        JOINT Foot_L
        {
          OFFSET 40.9854 0 -1.26872e-05
          CHANNELS 6 Xposition Yposition Zposition Zrotation Xrotation Yrotation
          JOINT Toes_L
          {
            OFFSET 11.7543 0 0
            CHANNELS 6 Xposition Yposition Zposition Zrotation Xrotation Yrotation
            End Site
            {
              OFFSET 5 0 0
            }
          }
        }
      }
    }
    JOINT UpperLeg_R
    {
      OFFSET -2.19251 6.46944 0
      CHANNELS 6 Xposition Yposition Zposition Zrotation Xrotation Yrotation
      JOINT LowerLeg_R
      {
        OFFSET -39.0811 0 0
        CHANNELS 6 Xposition Yposition Zposition Zrotation Xrotation Yrotation
        JOINT Foot_R
        {
          OFFSET -40.9854 0 0
          CHANNELS 6 Xposition Yposition Zposition Zrotation Xrotation Yrotation
          JOINT Toes_R
          {
            OFFSET -11.7543 0 0
            CHANNELS 6 Xposition Yposition Zposition Zrotation Xrotation Yrotation
            End Site
            {
              OFFSET -5 0 0
            }
          }
        }
      }
    }
  }
}
MOTION
Frames:	7
Frame Time:	0.0333333
0 0 0 0 0 -0 -1.69979 94.0449 1.8715 89.4788 -29.9892 5.6799 15.7357 5.1072e-06 -5.51765e-07 -127.677 87.4451 125.18 8.98455 -0.406207 -4.3199e-07 -1.538 1.53859 -1.70433 16.3773 -1.3905e-06 -6.99897e-07 2.34846 2.15374 7.21648 6.45672 -1.25837e-06 -1.02172e-07 5.19357 1.01362 9.97254 12.9942 -0.242716 4.98039 -90.2341 9.53931 -87.1585 5.34809 -7.22636e-06 -6.2814e-07 -43.9424 -37.9776 18.0479 24.3286 1.87007e-05 4.90208e-06 -3.35641e-05 8.54041e-06 -26.3238 22.2916 -9.88446e-07 4.63217e-06 16.686 48.5875 -7.98435 12.9945 -0.242716 -4.98039 89.5189 10.0725 -84.4285 -5.34813 -1.25947e-06 -3.79883e-06 -61.0321 -50.3036 -14.0925 -24.3289 0.000322201 -8.65921e-06 0.000707231 -0.000297562 -99.6781 -22.2915 -0.000108084 -4.47941e-06 -15.6757 -4.03163 -4.39267 -2.19248 -6.46944 -1.22534e-07 -178.062 -9.48214 4.81255 39.0811 -6.73843e-06 -1.23785e-05 3.8499e-07 -2.78088e-06 7.88204 40.9854 -6.48686e-06 -1.26872e-05 -4.29972 -22.8975 -57.9369 11.7543 -2.30145e-07 3.05095e-06 -0.0219023 -0.0221528 -16.6891 -2.19251 6.46944 -1.45247e-06 -173.907 -14.6503 -169.666 -39.0811 -4.44089e-16 0 -6.10352e-05 3.18055e-15 4.70051 -40.9854 7.72618e-06 5.99936e-06 0.0792615 -21.9665 -58.6148 -11.7543 -5.6619e-06 -5.58687e-06 0.15861 0.826487 -16.7052 
0 0 0 0 0 -0 -2.05477 94.0002 1.86842 89.5235 -31.0372 6.80099 15.7357 5.1072e-06 -5.51765e-07 -117.228 86.7527 114.872 8.98455 -0.406207 -4.3199e-07 -1.56207 1.43834 -1.32689 16.3773 -1.3905e-06 -6.99897e-07 3.533 2.91648 7.06478 6.45672 -1.25837e-06 -1.02172e-07 6.11708 1.56161 10.8076 12.9942 -0.242716 4.98039 -90.2412 9.26408 -86.9529 5.34809 -7.22636e-06 -6.2814e-07 -44.7073 -38.871 18.1231 24.3286 1.87007e-05 4.90208e-06 -3.32995e-05 8.65419e-06 -26.8407 22.2916 -9.88446e-07 4.63217e-06 17.7447 48.1366 -7.96332 12.9945 -0.242716 -4.98039 89.6486 9.2392 -84.2641 -5.34813 -1.25947e-06 -3.79883e-06 -69.8919 -51.9572 -18.9695 -24.3289 0.000322201 -8.65921e-06 0.000696718 -0.000293075 -103.892 -22.2915 -0.000108084 -4.47941e-06 -10.2395 -11.9428 -4.93496 -2.19248 -6.46944 -1.22534e-07 -177.676 -9.61723 5.9724 39.0811 -6.73843e-06 -1.23785e-05 3.99473e-07 -2.73845e-06 8.29952 40.9854 -6.48686e-06 -1.26872e-05 -4.98801 -23.521 -58.5491 11.7543 -2.30145e-07 3.05095e-06 -0.0878507 -0.208705 -16.8714 -2.19251 6.46944 -1.45247e-06 -173.56 -14.3866 -168.418 -39.0811 4.44089e-16 8.88178e-16 -6.10352e-05 0 4.70051 -40.9854 7.72618e-06 5.99936e-06 0.318768 -20.8347 -58.7613 -11.7543 -5.6619e-06 -5.58687e-06 0.149861 0.853803 -16.5857 
0 0 0 0 0 -0 -2.36825 93.9542 1.83308 89.5339 -32.0362 7.74672 15.7357 5.1072e-06 -5.51765e-07 -111.303 86.0104 109.206 8.98455 -0.406207 -4.3199e-07 -1.55259 1.38483 -1.01938 16.3773 -1.3905e-06 -6.99897e-07 4.74092 3.84174 6.81949 6.45672 -1.25837e-06 -1.02172e-07 7.04943 2.30711 11.6159 12.9942 -0.242716 4.98039 -90.2442 8.94694 -86.7247 5.34809 -7.22636e-06 -6.2814e-07 -45.5893 -39.5084 18.1926 24.3286 1.87007e-05 4.90208e-06 -3.31693e-05 8.71062e-06 -27.0987 22.2916 -9.88446e-07 4.63217e-06 18.8955 47.4857 -7.93526 12.9945 -0.242716 -4.98039 89.7411 8.62999 -84.0949 -5.34813 -1.25947e-06 -3.79883e-06 -78.0055 -53.0718 -23.1818 -24.3289 0.000322201 -8.65921e-06 0.000689752 -0.000276243 -107.562 -22.2915 -0.000108084 -4.47941e-06 -3.86156 -18.4216 -4.28052 -2.19248 -6.46944 -1.22534e-07 -177.305 -9.72857 7.06775 39.0811 -6.73843e-06 -1.23785e-05 4.04921e-07 -2.72368e-06 8.45606 40.9854 -6.48686e-06 -1.26872e-05 -5.57234 -24.0818 -58.9639 11.7543 -2.30145e-07 3.05095e-06 -0.14191 -0.364195 -17.015 -2.19251 6.46944 -1.45247e-06 -173.277 -14.0452 -167.374 -39.0811 6.66134e-16 8.88178e-16 -6.10352e-05 0 4.70051 -40.9854 7.72618e-06 5.99936e-06 0.556087 -19.6675 -58.8826 -11.7543 -5.6619e-06 -5.58687e-06 0.13767 0.869259 -16.4547 
0 0 0 0 0 -0 -2.62855 93.9124 1.77294 89.5513 -32.9322 8.54337 15.7357 5.1072e-06 -5.51765e-07 -108.099 85.2626 106.317 8.98455 -0.406207 -4.3199e-07 -1.49196 1.39923 -0.808954 16.3773 -1.3905e-06 -6.99897e-07 5.93394 4.88371 6.55555 6.45672 -1.25837e-06 -1.02172e-07 7.9181 3.22917 12.3544 12.9942 -0.242716 4.98039 -90.2444 8.65196 -86.5076 5.34809 -7.22636e-06 -6.2814e-07 -46.561 -39.7983 18.1909 24.3286 1.87007e-05 4.90208e-06 -3.31486e-05 8.71961e-06 -27.1399 22.2916 -9.88446e-07 4.63217e-06 19.9241 46.6544 -7.84765 12.9945 -0.242716 -4.98039 89.8067 8.15724 -83.8907 -5.34813 -1.25947e-06 -3.79883e-06 -85.9842 -54.5649 -27.442 -24.3289 0.000322201 -8.65921e-06 0.000621709 -0.000276345 -110.382 -22.2915 -0.000108084 -4.47941e-06 0.74686 -22.8494 -2.95218 -2.19248 -6.46944 -1.22534e-07 -176.993 -9.83044 8.02648 39.0811 -6.73843e-06 -1.23785e-05 4.06117e-07 -2.72051e-06 8.49039 40.9854 -6.48686e-06 -1.26872e-05 -6.0559 -24.4887 -59.261 11.7543 -2.30145e-07 3.05095e-06 -0.169263 -0.413898 -17.1231 -2.19251 6.46944 -1.45247e-06 -173.078 -13.6858 -166.525 -39.0811 1.33227e-15 0 -6.10352e-05 -9.54166e-15 4.70051 -40.9854 7.72618e-06 5.99936e-06 0.711412 -18.5565 -58.9874 -11.7543 -5.6619e-06 -5.58687e-06 0.123983 0.881541 -16.3153 
0 0 0 0 0 -0 -2.82843 93.8807 1.68108 89.583 -33.6637 9.20478 15.7357 5.1072e-06 -5.51765e-07 -106.115 84.6095 104.636 8.98455 -0.406207 -4.3199e-07 -1.40163 1.42355 -0.65255 16.3773 -1.3905e-06 -6.99897e-07 7.03813 5.90027 6.2678 6.45672 -1.25837e-06 -1.02172e-07 8.67297 4.18646 12.8889 12.9942 -0.242716 4.98039 -90.2375 8.38775 -86.3366 5.34809 -7.22636e-06 -6.2814e-07 -47.5678 -39.7713 18.1826 24.3286 1.87007e-05 4.90208e-06 -3.32142e-05 8.69114e-06 -27.0095 22.2916 -9.88446e-07 4.63217e-06 20.4005 45.8608 -7.48826 12.9945 -0.242716 -4.98039 89.8633 7.75427 -83.6887 -5.34813 -1.25947e-06 -3.79883e-06 -93.2989 -56.2309 -31.4585 -24.3289 0.000322201 -8.65921e-06 0.000617029 -0.000276894 -112.213 -22.2915 -0.000108084 -4.47941e-06 3.08688 -26.4115 -1.54789 -2.19248 -6.46944 -1.22534e-07 -176.74 -9.94071 8.7829 39.0811 -6.73843e-06 -1.23785e-05 4.07186e-07 -2.71771e-06 8.52106 40.9854 -6.48686e-06 -1.26872e-05 -6.43269 -24.6952 -59.4761 11.7543 -2.30145e-07 3.05095e-06 -0.168027 -0.35418 -17.1904 -2.19251 6.46944 -1.45247e-06 -172.945 -13.364 -165.863 -39.0811 0 8.88178e-16 -3.05176e-05 0 4.70228 -40.9854 7.72618e-06 5.99936e-06 0.749155 -17.6011 -59.0765 -11.7543 -5.6619e-06 -5.58687e-06 0.106997 0.881568 -16.1657 
0 0 0 0 0 -0 -2.9667 93.8561 1.55579 89.6211 -34.1799 9.73675 15.7357 5.1072e-06 -5.51765e-07 -104.475 84.1305 103.233 8.98455 -0.406207 -4.3199e-07 -1.28795 1.39644 -0.493564 16.3773 -1.3905e-06 -6.99897e-07 7.95814 6.7088 5.93576 6.45672 -1.25837e-06 -1.02172e-07 9.2498 4.96977 13.1309 12.9942 -0.242716 4.98039 -90.2198 8.15126 -86.2406 5.34809 -7.22636e-06 -6.2814e-07 -48.5887 -39.5645 18.202 24.3286 1.87007e-05 4.90208e-06 -3.33441e-05 8.63489e-06 -26.7527 22.2916 -9.88446e-07 4.63217e-06 20.3001 45.31 -6.91744 12.9945 -0.242716 -4.98039 89.91 7.44693 -83.5383 -5.34813 -1.25947e-06 -3.79883e-06 -98.126 -57.3501 -33.9106 -24.3289 0.000322201 -8.65921e-06 0.000673441 -0.000287957 -113.151 -22.2915 -0.000108084 -4.47941e-06 4.85721 -29.1389 -0.0644982 -2.19248 -6.46944 -1.22534e-07 -176.531 -10.077 9.31772 39.0811 -6.73843e-06 -1.23785e-05 4.09639e-07 -2.71138e-06 8.59136 40.9854 -6.48686e-06 -1.26872e-05 -6.69167 -24.7214 -59.5934 11.7543 -2.30145e-07 3.05095e-06 -0.162288 -0.295439 -17.2289 -2.19251 6.46944 -1.45247e-06 -172.846 -13.1155 -165.379 -39.0811 2.22045e-16 -8.88178e-16 -3.05176e-05 -3.18055e-15 4.71173 -40.9854 7.72618e-06 5.99936e-06 0.659662 -16.8884 -59.1608 -11.7543 -5.6619e-06 -5.58687e-06 0.0897901 0.890011 -16.0013 
0 0 0 0 0 -0 -3.03666 93.8336 1.40495 89.6746 -34.4833 10.1459 15.7357 5.1072e-06 -5.51765e-07 -102.96 83.8458 101.885 8.98455 -0.406207 -4.3199e-07 -1.15677 1.31141 -0.33732 16.3773 -1.3905e-06 -6.99897e-07 8.68334 7.24703 5.57819 6.45672 -1.25837e-06 -1.02172e-07 9.52657 5.48645 13.1131 12.9942 -0.242716 4.98039 -90.1894 7.92754 -86.2261 5.34809 -7.22636e-06 -6.2814e-07 -49.61 -39.2935 18.2338 24.3286 1.87007e-05 4.90208e-06 -3.35019e-05 8.56701e-06 -26.4443 22.2916 -9.88446e-07 4.63217e-06 19.9228 45.0815 -6.36438 12.9945 -0.242716 -4.98039 89.9391 7.27219 -83.4645 -5.34813 -1.25947e-06 -3.79883e-06 -99.9726 -57.8041 -34.4151 -24.3289 0.000322201 -8.65921e-06 0.000644097 -0.000278942 -113.416 -22.2915 -0.000108084 -4.47941e-06 6.38738 -30.5952 1.3247 -2.19248 -6.46944 -1.22534e-07 -176.375 -10.2616 9.63372 39.0811 -6.73843e-06 -1.23785e-05 4.13514e-07 -2.70161e-06 8.70229 40.9854 -6.48686e-06 -1.26872e-05 -6.84075 -24.6246 -59.6108 11.7543 -2.30145e-07 3.05095e-06 -0.171344 -0.3174 -17.2577 -2.19251 6.46944 -1.45247e-06 -172.776 -12.9835 -165.067 -39.0811 4.44089e-16 0 -3.05176e-05 3.18055e-15 4.73035 -40.9854 7.72618e-06 5.99936e-06 0.437588 -16.4656 -59.2626 -11.7543 -5.6619e-06 -5.58687e-06 0.0778713 0.94558 -15.8143 
